<svg width="420" height="420" viewBox="0 0 420 420" fill="none" xmlns="http://www.w3.org/2000/svg">
<circle cx="211" cy="204" r="175" fill="#EDC32E"/>
<path d="M260.4 94.087C268.497 102.575 266.248 128.974 264.111 141.113L222.277 129.93C231.611 114.446 252.303 85.5995 260.4 94.087Z" fill="#4D4D4D"/>
<path d="M165.944 94.087C157.847 102.575 160.097 128.974 162.233 141.113L204.068 129.93C194.734 114.446 174.041 85.5995 165.944 94.087Z" fill="#4D4D4D"/>
<path d="M249.128 96.6016C258.514 96.6016 249.128 121.528 249.128 124.927L228.346 119.741C234.627 109.444 245.473 96.6016 249.128 96.6016Z" fill="#1E1E27"/>
<path d="M177.216 96.6016C167.831 96.6016 177.216 121.528 177.216 124.927L197.998 119.741C191.717 109.444 180.871 96.6016 177.216 96.6016Z" fill="#1E1E27"/>
<path d="M133.329 289.091C94.8662 247.664 114.186 192.486 130.693 166.438C132.025 164.336 134.939 164.104 136.693 165.87L262.674 292.695C264.526 294.559 264.123 297.662 261.787 298.867C232.228 314.11 171.768 330.493 133.329 289.091Z" fill="#1E1E27"/>
<path d="M284.149 165.402L220.869 227.448C219.286 229 219.267 231.543 220.827 233.118L283.862 296.768C285.581 298.504 288.462 298.286 289.865 296.286C329.102 240.363 307.801 188.096 289.809 165.645C288.387 163.87 285.772 163.81 284.149 165.402Z" fill="#4D4D4D"/>
<path d="M283.827 149.027L212.024 220.829C210.435 222.418 207.849 222.387 206.299 220.759L138.202 149.242C136.616 147.576 136.787 144.887 138.582 143.447C199.861 94.274 258.791 121.248 283.742 143.428C285.405 144.906 285.4 147.454 283.827 149.027Z" fill="#1E1E27"/>
<path d="M218.831 203.123L213.129 208.939C211.534 210.567 208.904 210.534 207.349 208.869L202.184 203.335C200.635 201.676 200.757 199.007 202.73 197.884C208.897 194.376 214.656 195.745 218.448 197.923C220.35 199.016 220.366 201.557 218.831 203.123Z" fill="#4D4D4D"/>
<path d="M222.422 241.034C222.406 241.05 222.388 241.064 222.369 241.075C222.35 241.086 222.332 241.093 222.313 241.097C222.294 241.1 222.276 241.1 222.259 241.096C222.242 241.091 222.226 241.082 222.212 241.068C222.198 241.053 222.189 241.037 222.187 241.019C222.186 241.001 222.19 240.982 222.201 240.963C222.176 240.969 222.155 240.97 222.137 240.965C222.118 240.961 222.104 240.954 222.094 240.943C222.085 240.934 222.079 240.925 222.075 240.914C222.072 240.904 222.07 240.894 222.071 240.883C222.071 240.873 222.074 240.862 222.08 240.852C222.085 240.842 222.092 240.833 222.101 240.824C222.12 240.806 222.139 240.793 222.159 240.786C222.179 240.778 222.199 240.774 222.218 240.775C222.237 240.775 222.255 240.779 222.272 240.787C222.288 240.794 222.302 240.803 222.313 240.814C222.319 240.82 222.324 240.827 222.327 240.834C222.331 240.841 222.334 240.847 222.336 240.853C222.338 240.86 222.339 240.865 222.34 240.87C222.341 240.875 222.341 240.879 222.342 240.881C222.342 240.884 222.341 240.886 222.341 240.889C222.34 240.892 222.339 240.895 222.336 240.897C222.333 240.9 222.328 240.902 222.323 240.902C222.318 240.902 222.313 240.901 222.31 240.897C222.307 240.894 222.305 240.891 222.305 240.887C222.305 240.884 222.305 240.879 222.304 240.874C222.304 240.869 222.302 240.864 222.299 240.858C222.297 240.852 222.292 240.845 222.284 240.837C222.278 240.83 222.269 240.824 222.257 240.819C222.246 240.814 222.233 240.812 222.219 240.811C222.205 240.811 222.19 240.813 222.174 240.819C222.158 240.825 222.143 240.835 222.127 240.85C222.121 240.856 222.117 240.862 222.113 240.869C222.11 240.875 222.109 240.881 222.108 240.887C222.108 240.893 222.108 240.899 222.11 240.905C222.112 240.91 222.115 240.915 222.119 240.919C222.132 240.932 222.149 240.938 222.171 240.936C222.194 240.934 222.218 240.924 222.246 240.904C222.25 240.9 222.254 240.899 222.258 240.899C222.263 240.899 222.266 240.901 222.269 240.904C222.273 240.908 222.275 240.912 222.275 240.917C222.275 240.922 222.273 240.926 222.27 240.93C222.266 240.934 222.26 240.941 222.252 240.95C222.244 240.959 222.238 240.969 222.233 240.98C222.227 240.991 222.225 241.002 222.224 241.014C222.223 241.025 222.228 241.036 222.237 241.045C222.243 241.052 222.252 241.057 222.262 241.06C222.273 241.064 222.285 241.065 222.299 241.063C222.312 241.061 222.327 241.056 222.344 241.047C222.36 241.038 222.378 241.025 222.396 241.007C222.412 240.991 222.425 240.973 222.433 240.951C222.442 240.929 222.446 240.906 222.445 240.882C222.445 240.858 222.439 240.833 222.428 240.807C222.417 240.782 222.4 240.757 222.377 240.734C222.351 240.706 222.322 240.687 222.291 240.674C222.26 240.662 222.229 240.656 222.197 240.656C222.165 240.657 222.134 240.664 222.104 240.677C222.073 240.691 222.045 240.71 222.019 240.735C221.999 240.755 221.985 240.776 221.975 240.801C221.966 240.825 221.961 240.85 221.961 240.876C221.962 240.902 221.967 240.927 221.977 240.953C221.988 240.978 222.003 241.001 222.024 241.022C222.037 241.036 222.048 241.046 222.056 241.052C222.064 241.058 222.069 241.062 222.071 241.064C222.075 241.068 222.077 241.072 222.077 241.075C222.076 241.08 222.075 241.083 222.072 241.086C222.068 241.09 222.064 241.091 222.058 241.09C222.053 241.089 222.047 241.087 222.04 241.083C222.034 241.079 222.027 241.074 222.02 241.068C222.013 241.062 222.007 241.056 222 241.049C221.979 241.027 221.961 241.002 221.948 240.973C221.935 240.944 221.927 240.915 221.925 240.884C221.923 240.854 221.927 240.823 221.938 240.793C221.949 240.763 221.967 240.735 221.993 240.709C222.023 240.68 222.056 240.658 222.091 240.643C222.126 240.628 222.162 240.62 222.198 240.62C222.235 240.62 222.271 240.627 222.306 240.642C222.341 240.656 222.374 240.679 222.403 240.709C222.429 240.735 222.448 240.762 222.461 240.792C222.474 240.821 222.481 240.85 222.483 240.879C222.484 240.908 222.48 240.936 222.47 240.963C222.459 240.989 222.444 241.013 222.422 241.034ZM222.383 241.414C222.483 241.402 222.56 241.386 222.615 241.366C222.618 241.365 222.622 241.364 222.625 241.365C222.628 241.366 222.631 241.367 222.633 241.37C222.637 241.374 222.639 241.379 222.639 241.384C222.639 241.389 222.637 241.393 222.634 241.397C222.632 241.398 222.63 241.399 222.628 241.4C222.594 241.413 222.554 241.424 222.507 241.433C222.46 241.442 222.404 241.45 222.34 241.456C222.325 241.471 222.311 241.485 222.297 241.5C222.282 241.514 222.266 241.53 222.249 241.547C222.231 241.564 222.214 241.581 222.196 241.596C222.178 241.613 222.16 241.627 222.143 241.64C222.125 241.653 222.108 241.664 222.091 241.673C222.075 241.683 222.059 241.689 222.043 241.693C222.028 241.697 222.014 241.697 222.001 241.694C221.987 241.692 221.975 241.685 221.965 241.674C221.949 241.659 221.944 241.641 221.947 241.621C221.951 241.601 221.964 241.58 221.985 241.559C221.997 241.548 222.011 241.536 222.027 241.525C222.042 241.514 222.059 241.504 222.078 241.494C222.097 241.484 222.116 241.474 222.137 241.466C222.157 241.457 222.178 241.45 222.199 241.443C222.22 241.437 222.241 241.432 222.262 241.428C222.283 241.424 222.304 241.421 222.324 241.421C222.34 241.405 222.356 241.389 222.372 241.373C222.389 241.358 222.404 241.344 222.418 241.331C222.402 241.333 222.387 241.331 222.372 241.326C222.358 241.322 222.346 241.315 222.337 241.305C222.329 241.297 222.323 241.288 222.319 241.279C222.316 241.269 222.315 241.259 222.316 241.249C222.317 241.239 222.321 241.228 222.326 241.218C222.331 241.208 222.338 241.199 222.347 241.19C222.365 241.172 222.384 241.159 222.404 241.152C222.424 241.145 222.443 241.141 222.462 241.142C222.481 241.142 222.498 241.146 222.514 241.153C222.53 241.16 222.543 241.169 222.553 241.179C222.56 241.186 222.566 241.194 222.57 241.202C222.574 241.21 222.577 241.217 222.579 241.223C222.581 241.23 222.582 241.236 222.582 241.24C222.582 241.244 222.582 241.247 222.582 241.247C222.582 241.252 222.58 241.257 222.577 241.26C222.573 241.264 222.569 241.265 222.563 241.266C222.558 241.266 222.554 241.264 222.551 241.26C222.548 241.257 222.546 241.253 222.545 241.247C222.545 241.246 222.545 241.243 222.544 241.241C222.544 241.238 222.544 241.234 222.543 241.231C222.542 241.227 222.54 241.223 222.538 241.218C222.535 241.214 222.532 241.21 222.527 241.205C222.521 241.198 222.512 241.192 222.5 241.187C222.489 241.182 222.476 241.179 222.463 241.178C222.449 241.177 222.434 241.18 222.419 241.185C222.403 241.191 222.388 241.201 222.373 241.215C222.362 241.226 222.356 241.238 222.353 241.249C222.351 241.261 222.355 241.272 222.365 241.282C222.37 241.287 222.377 241.29 222.385 241.293C222.393 241.296 222.402 241.297 222.413 241.297C222.424 241.296 222.436 241.293 222.448 241.288C222.461 241.284 222.474 241.276 222.488 241.266C222.492 241.263 222.496 241.262 222.5 241.263C222.505 241.263 222.509 241.265 222.513 241.268C222.517 241.272 222.518 241.277 222.517 241.281C222.517 241.286 222.515 241.291 222.511 241.294C222.511 241.294 222.507 241.298 222.5 241.304C222.493 241.311 222.484 241.319 222.472 241.33C222.461 241.341 222.447 241.354 222.432 241.368C222.416 241.383 222.4 241.398 222.383 241.414ZM222.281 241.462C222.255 241.466 222.229 241.472 222.203 241.481C222.176 241.489 222.151 241.5 222.127 241.511C222.102 241.523 222.08 241.535 222.059 241.548C222.039 241.562 222.022 241.575 222.009 241.588C222 241.597 221.994 241.604 221.99 241.61C221.987 241.617 221.984 241.623 221.984 241.628C221.983 241.633 221.984 241.637 221.985 241.64C221.987 241.644 221.989 241.647 221.991 241.649C221.998 241.657 222.008 241.66 222.019 241.66C222.03 241.659 222.042 241.656 222.055 241.65C222.068 241.645 222.082 241.637 222.097 241.627C222.112 241.617 222.127 241.606 222.142 241.594C222.156 241.582 222.17 241.57 222.184 241.558C222.197 241.545 222.21 241.533 222.221 241.522C222.231 241.513 222.241 241.503 222.251 241.493C222.261 241.483 222.271 241.473 222.281 241.462ZM222.868 241.646C222.866 241.647 222.86 241.649 222.851 241.652C222.842 241.655 222.832 241.658 222.82 241.661C222.808 241.664 222.795 241.666 222.78 241.668C222.766 241.671 222.752 241.671 222.737 241.671C222.723 241.67 222.709 241.668 222.696 241.664C222.684 241.659 222.672 241.653 222.663 241.643C222.65 241.63 222.643 241.614 222.643 241.596C222.642 241.579 222.647 241.561 222.655 241.545C222.634 241.55 222.615 241.551 222.596 241.547C222.578 241.544 222.563 241.537 222.552 241.526C222.544 241.517 222.538 241.508 222.534 241.498C222.531 241.488 222.529 241.478 222.53 241.467C222.531 241.457 222.534 241.446 222.539 241.436C222.544 241.426 222.551 241.416 222.56 241.408C222.578 241.39 222.597 241.377 222.617 241.37C222.637 241.362 222.656 241.359 222.675 241.359C222.694 241.36 222.711 241.363 222.727 241.37C222.743 241.377 222.756 241.386 222.766 241.397C222.774 241.404 222.779 241.412 222.783 241.42C222.787 241.428 222.79 241.435 222.792 241.441C222.794 241.448 222.795 241.454 222.795 241.458C222.795 241.462 222.795 241.464 222.795 241.465C222.795 241.47 222.793 241.475 222.79 241.478C222.786 241.481 222.782 241.483 222.777 241.483C222.772 241.483 222.767 241.482 222.764 241.478C222.76 241.474 222.758 241.47 222.759 241.465C222.759 241.464 222.758 241.462 222.758 241.459C222.758 241.456 222.757 241.453 222.756 241.449C222.754 241.444 222.752 241.44 222.749 241.435C222.747 241.43 222.743 241.425 222.738 241.42C222.731 241.413 222.722 241.407 222.711 241.402C222.7 241.397 222.687 241.395 222.674 241.395C222.66 241.395 222.646 241.397 222.631 241.403C222.617 241.409 222.602 241.418 222.588 241.432C222.584 241.437 222.579 241.442 222.576 241.447C222.572 241.452 222.57 241.458 222.568 241.464C222.567 241.47 222.567 241.476 222.568 241.482C222.57 241.488 222.574 241.494 222.579 241.5C222.583 241.504 222.589 241.508 222.597 241.51C222.606 241.513 222.615 241.514 222.626 241.514C222.637 241.513 222.648 241.51 222.661 241.506C222.674 241.501 222.687 241.494 222.701 241.484C222.705 241.481 222.709 241.48 222.713 241.48C222.718 241.481 222.722 241.482 222.726 241.486C222.729 241.489 222.73 241.493 222.73 241.498C222.73 241.503 222.729 241.507 222.726 241.511C222.721 241.515 222.716 241.522 222.708 241.531C222.701 241.539 222.694 241.548 222.689 241.558C222.683 241.569 222.68 241.579 222.679 241.59C222.678 241.6 222.682 241.61 222.69 241.618C222.696 241.624 222.703 241.628 222.711 241.63C222.719 241.633 222.729 241.635 222.738 241.635C222.749 241.635 222.759 241.635 222.77 241.633C222.782 241.632 222.792 241.63 222.803 241.627C222.813 241.625 222.823 241.622 222.832 241.619C222.841 241.616 222.849 241.614 222.855 241.612C222.859 241.61 222.862 241.61 222.866 241.611C222.869 241.612 222.873 241.613 222.875 241.616C222.879 241.62 222.88 241.624 222.88 241.63C222.879 241.635 222.878 241.639 222.874 241.642C222.873 241.644 222.871 241.645 222.868 241.646ZM223.132 241.917C223.13 241.918 223.126 241.919 223.119 241.921C223.113 241.923 223.105 241.925 223.095 241.927C223.086 241.928 223.076 241.93 223.064 241.931C223.053 241.932 223.041 241.932 223.03 241.931C223.019 241.931 223.008 241.928 222.998 241.925C222.987 241.921 222.979 241.916 222.971 241.908C222.96 241.896 222.952 241.884 222.948 241.871C222.944 241.859 222.942 241.847 222.942 241.837C222.93 241.841 222.918 241.844 222.906 241.845C222.894 241.846 222.883 241.846 222.872 241.844C222.86 241.843 222.849 241.84 222.839 241.835C222.829 241.83 222.821 241.824 222.813 241.817C222.799 241.802 222.792 241.786 222.79 241.768C222.789 241.75 222.792 241.73 222.799 241.71C222.807 241.69 222.818 241.668 222.833 241.647C222.848 241.625 222.865 241.603 222.883 241.58C222.902 241.559 222.922 241.537 222.942 241.516C222.963 241.495 222.982 241.475 223.001 241.457C223.037 241.422 223.069 241.392 223.098 241.369C223.126 241.345 223.151 241.326 223.173 241.311C223.195 241.297 223.214 241.286 223.23 241.28C223.247 241.273 223.261 241.269 223.272 241.269C223.284 241.268 223.294 241.269 223.302 241.272C223.309 241.275 223.316 241.28 223.321 241.285C223.33 241.294 223.334 241.304 223.336 241.315C223.337 241.327 223.335 241.34 223.33 241.353C223.326 241.367 223.318 241.381 223.308 241.396C223.297 241.411 223.284 241.426 223.268 241.442C223.243 241.466 223.215 241.488 223.183 241.509C223.151 241.53 223.118 241.549 223.083 241.566C223.049 241.583 223.013 241.599 222.978 241.614C222.942 241.628 222.908 241.641 222.875 241.654C222.865 241.666 222.856 241.679 222.848 241.692C222.841 241.705 222.835 241.717 222.831 241.73C222.828 241.742 222.827 241.753 222.828 241.764C222.829 241.775 222.833 241.784 222.841 241.792C222.849 241.8 222.858 241.805 222.87 241.808C222.881 241.81 222.893 241.81 222.905 241.809C222.918 241.806 222.93 241.802 222.942 241.796C222.954 241.79 222.965 241.782 222.975 241.772C222.981 241.766 222.987 241.759 222.992 241.751C222.998 241.743 223.002 241.736 223.004 241.728C223.007 241.72 223.008 241.712 223.008 241.705C223.007 241.698 223.004 241.692 222.999 241.686C222.994 241.682 222.99 241.68 222.986 241.679C222.982 241.679 222.979 241.679 222.975 241.68C222.972 241.681 222.969 241.682 222.967 241.684C222.965 241.686 222.963 241.687 222.962 241.688C222.959 241.691 222.956 241.695 222.955 241.699C222.953 241.704 222.952 241.709 222.954 241.716C222.955 241.723 222.953 241.728 222.948 241.733C222.944 241.737 222.94 241.739 222.935 241.738C222.93 241.738 222.926 241.736 222.922 241.733C222.918 241.728 222.915 241.723 222.914 241.716C222.914 241.71 222.914 241.703 222.916 241.697C222.918 241.69 222.921 241.683 222.924 241.677C222.928 241.671 222.931 241.666 222.936 241.662C222.942 241.655 222.95 241.65 222.958 241.647C222.966 241.644 222.974 241.642 222.981 241.642C222.99 241.642 222.997 241.644 223.005 241.647C223.012 241.65 223.019 241.654 223.024 241.66C223.034 241.67 223.04 241.681 223.043 241.693C223.045 241.705 223.045 241.717 223.042 241.73C223.039 241.742 223.034 241.754 223.027 241.766C223.019 241.778 223.011 241.789 223.001 241.799C222.995 241.804 222.989 241.809 222.982 241.814C222.981 241.817 222.98 241.821 222.98 241.826C222.979 241.831 222.978 241.837 222.979 241.843C222.98 241.849 222.981 241.856 222.984 241.863C222.987 241.869 222.991 241.876 222.998 241.883C223.003 241.888 223.011 241.892 223.021 241.894C223.031 241.895 223.042 241.896 223.053 241.895C223.065 241.894 223.077 241.893 223.089 241.89C223.101 241.888 223.112 241.885 223.121 241.882C223.124 241.88 223.128 241.88 223.131 241.881C223.134 241.882 223.137 241.884 223.14 241.886C223.144 241.89 223.145 241.895 223.145 241.9C223.145 241.905 223.143 241.909 223.139 241.913C223.138 241.914 223.135 241.916 223.132 241.917ZM222.913 241.603C222.94 241.592 222.969 241.58 222.998 241.567C223.028 241.554 223.057 241.54 223.086 241.525C223.114 241.509 223.142 241.492 223.169 241.474C223.196 241.456 223.22 241.436 223.242 241.415C223.251 241.406 223.259 241.397 223.267 241.388C223.276 241.378 223.283 241.368 223.289 241.359C223.294 241.349 223.298 241.34 223.299 241.331C223.301 241.323 223.299 241.315 223.294 241.31C223.292 241.308 223.288 241.307 223.283 241.306C223.278 241.306 223.27 241.307 223.261 241.31C223.252 241.313 223.24 241.318 223.226 241.325C223.212 241.333 223.195 241.343 223.175 241.357C223.156 241.371 223.133 241.388 223.108 241.41C223.083 241.431 223.054 241.458 223.022 241.489C223.011 241.5 223 241.511 222.989 241.522C222.979 241.533 222.968 241.543 222.959 241.553C222.949 241.564 222.94 241.573 222.932 241.582C222.924 241.59 222.918 241.597 222.913 241.603ZM223.192 241.884C223.185 241.89 223.178 241.894 223.171 241.898C223.164 241.902 223.158 241.905 223.152 241.908C223.147 241.911 223.143 241.913 223.139 241.915C223.136 241.916 223.134 241.917 223.134 241.917C223.126 241.92 223.119 241.918 223.114 241.913C223.11 241.909 223.109 241.905 223.108 241.9C223.108 241.895 223.11 241.89 223.114 241.887C223.115 241.885 223.116 241.885 223.117 241.884C223.119 241.884 223.121 241.883 223.124 241.882C223.127 241.881 223.131 241.879 223.137 241.876C223.144 241.872 223.153 241.867 223.165 241.859C223.161 241.855 223.158 241.85 223.154 241.846C223.15 241.842 223.147 241.837 223.145 241.832C223.143 241.827 223.142 241.822 223.143 241.817C223.143 241.811 223.146 241.806 223.152 241.801C223.156 241.797 223.162 241.793 223.171 241.789C223.18 241.784 223.189 241.78 223.2 241.778C223.21 241.775 223.219 241.774 223.229 241.774C223.238 241.774 223.245 241.776 223.25 241.781C223.255 241.786 223.257 241.792 223.256 241.799C223.256 241.807 223.254 241.814 223.25 241.822C223.246 241.829 223.241 241.836 223.236 241.843C223.23 241.85 223.225 241.856 223.221 241.861C223.224 241.865 223.228 241.868 223.232 241.872C223.236 241.876 223.24 241.879 223.243 241.883C223.256 241.896 223.263 241.909 223.264 241.922C223.265 241.934 223.259 241.947 223.246 241.96C223.24 241.965 223.234 241.971 223.228 241.976C223.221 241.981 223.215 241.986 223.207 241.991C223.2 241.996 223.194 242.001 223.187 242.006C223.18 242.011 223.174 242.017 223.168 242.023C223.16 242.031 223.154 242.039 223.151 242.047C223.147 242.054 223.146 242.061 223.146 242.068C223.146 242.075 223.148 242.081 223.15 242.086C223.153 242.091 223.156 242.095 223.159 242.099C223.169 242.109 223.181 242.115 223.196 242.117C223.212 242.12 223.227 242.12 223.244 242.119C223.26 242.117 223.277 242.114 223.292 242.11C223.309 242.106 223.322 242.102 223.334 242.099C223.337 242.098 223.34 242.098 223.344 242.099C223.347 242.1 223.35 242.101 223.352 242.104C223.356 242.108 223.358 242.112 223.357 242.118C223.357 242.122 223.355 242.126 223.352 242.13C223.35 242.132 223.347 242.133 223.344 242.134C223.33 242.138 223.313 242.143 223.293 242.147C223.275 242.152 223.256 242.155 223.236 242.156C223.217 242.157 223.198 242.156 223.18 242.151C223.162 242.147 223.146 242.138 223.133 242.125C223.125 242.116 223.118 242.107 223.114 242.096C223.11 242.086 223.108 242.075 223.109 242.064C223.109 242.053 223.112 242.041 223.118 242.029C223.124 242.017 223.132 242.006 223.143 241.995C223.154 241.984 223.167 241.974 223.181 241.965C223.195 241.956 223.207 241.946 223.217 241.936C223.222 241.932 223.224 241.928 223.224 241.923C223.224 241.919 223.221 241.914 223.215 241.907C223.212 241.904 223.208 241.9 223.204 241.896C223.201 241.893 223.197 241.889 223.192 241.884ZM223.195 241.836C223.197 241.834 223.198 241.832 223.201 241.829C223.204 241.827 223.206 241.824 223.208 241.821C223.21 241.818 223.212 241.815 223.213 241.813C223.215 241.811 223.215 241.809 223.214 241.808C223.214 241.808 223.212 241.808 223.209 241.808C223.206 241.809 223.203 241.81 223.2 241.811C223.196 241.812 223.193 241.814 223.189 241.816C223.185 241.817 223.182 241.819 223.18 241.82L223.195 241.836ZM223.555 241.994C223.546 242.003 223.535 242.007 223.523 242.007C223.511 242.007 223.501 242.002 223.492 241.993C223.483 241.984 223.479 241.974 223.479 241.962C223.479 241.949 223.484 241.939 223.493 241.93C223.497 241.926 223.502 241.923 223.507 241.921C223.513 241.919 223.518 241.918 223.524 241.918C223.53 241.918 223.535 241.919 223.541 241.921C223.546 241.923 223.551 241.927 223.555 241.931C223.56 241.935 223.563 241.94 223.565 241.946C223.567 241.951 223.568 241.957 223.568 241.963C223.568 241.968 223.567 241.974 223.565 241.979C223.562 241.985 223.559 241.99 223.555 241.994ZM223.295 242.138C223.328 242.105 223.364 242.074 223.401 242.046C223.405 242.043 223.409 242.042 223.414 242.042C223.419 242.042 223.423 242.044 223.427 242.048C223.431 242.051 223.432 242.056 223.431 242.061C223.431 242.065 223.429 242.07 223.426 242.073C223.424 242.074 223.42 242.078 223.412 242.084C223.405 242.091 223.396 242.098 223.385 242.107C223.375 242.115 223.364 242.125 223.352 242.135C223.341 242.145 223.331 242.154 223.322 242.163C223.31 242.175 223.301 242.186 223.295 242.196C223.29 242.206 223.288 242.215 223.287 242.222C223.287 242.23 223.288 242.237 223.291 242.243C223.294 242.249 223.297 242.253 223.301 242.257C223.307 242.264 223.316 242.268 223.328 242.271C223.339 242.273 223.353 242.274 223.368 242.273C223.384 242.272 223.401 242.27 223.42 242.266C223.439 242.262 223.459 242.256 223.481 242.249C223.484 242.248 223.488 242.248 223.491 242.249C223.494 242.25 223.497 242.251 223.5 242.254C223.504 242.258 223.505 242.262 223.505 242.267C223.504 242.272 223.502 242.277 223.499 242.28C223.497 242.282 223.494 242.284 223.492 242.284C223.484 242.287 223.474 242.29 223.462 242.293C223.45 242.296 223.438 242.299 223.424 242.302C223.411 242.305 223.397 242.307 223.383 242.308C223.369 242.309 223.355 242.31 223.341 242.309C223.328 242.308 223.315 242.305 223.304 242.301C223.292 242.297 223.282 242.291 223.274 242.283C223.264 242.273 223.257 242.261 223.254 242.249C223.25 242.237 223.25 242.224 223.252 242.211C223.254 242.199 223.259 242.186 223.266 242.174C223.274 242.161 223.283 242.149 223.295 242.138ZM223.536 241.974C223.539 241.971 223.54 241.967 223.54 241.962C223.54 241.957 223.539 241.953 223.536 241.95C223.533 241.947 223.529 241.945 223.524 241.946C223.519 241.946 223.515 241.947 223.512 241.95C223.509 241.953 223.507 241.957 223.507 241.962C223.507 241.967 223.509 241.971 223.512 241.974C223.515 241.977 223.519 241.979 223.523 241.979C223.528 241.979 223.532 241.978 223.536 241.974ZM223.451 242.359C223.449 242.371 223.45 242.383 223.453 242.394C223.457 242.406 223.464 242.417 223.475 242.428C223.486 242.44 223.499 242.448 223.514 242.452C223.528 242.455 223.544 242.457 223.56 242.456C223.577 242.455 223.593 242.452 223.61 242.447C223.627 242.443 223.643 242.438 223.659 242.432C223.663 242.43 223.666 242.43 223.669 242.431C223.673 242.432 223.676 242.434 223.678 242.436C223.682 242.44 223.684 242.445 223.683 242.45C223.683 242.455 223.681 242.459 223.678 242.462C223.677 242.463 223.676 242.464 223.674 242.465C223.674 242.466 223.672 242.466 223.671 242.466C223.62 242.485 223.576 242.494 223.539 242.492C223.503 242.491 223.473 242.478 223.449 242.455C223.434 242.439 223.424 242.423 223.419 242.406C223.414 242.389 223.413 242.373 223.415 242.356C223.417 242.34 223.423 242.324 223.431 242.309C223.44 242.294 223.45 242.28 223.462 242.269C223.474 242.257 223.486 242.248 223.499 242.241C223.512 242.234 223.524 242.23 223.537 242.228C223.55 242.226 223.562 242.227 223.574 242.23C223.585 242.234 223.596 242.24 223.605 242.249C223.61 242.255 223.614 242.261 223.616 242.268C223.62 242.276 223.621 242.284 223.621 242.292C223.621 242.3 223.62 242.308 223.616 242.316C223.613 242.325 223.608 242.332 223.6 242.34C223.591 242.349 223.58 242.356 223.568 242.361C223.557 242.366 223.545 242.369 223.532 242.37C223.519 242.372 223.506 242.372 223.492 242.37C223.478 242.368 223.465 242.364 223.451 242.359ZM223.464 242.327C223.474 242.331 223.484 242.334 223.495 242.335C223.505 242.337 223.515 242.337 223.525 242.335C223.535 242.334 223.544 242.332 223.552 242.328C223.56 242.324 223.568 242.319 223.574 242.313C223.581 242.306 223.585 242.299 223.585 242.293C223.585 242.285 223.583 242.28 223.578 242.275C223.572 242.269 223.565 242.265 223.557 242.264C223.55 242.263 223.542 242.264 223.533 242.266C223.525 242.269 223.517 242.273 223.508 242.279C223.5 242.284 223.493 242.29 223.486 242.297C223.482 242.301 223.478 242.305 223.474 242.311C223.47 242.316 223.467 242.322 223.464 242.327ZM223.842 242.642C223.834 242.645 223.825 242.648 223.813 242.651C223.802 242.654 223.791 242.657 223.778 242.66C223.765 242.663 223.752 242.665 223.738 242.667C223.725 242.669 223.711 242.669 223.698 242.668C223.685 242.667 223.673 242.664 223.661 242.659C223.649 242.655 223.639 242.649 223.63 242.64C223.616 242.626 223.609 242.61 223.608 242.591C223.607 242.573 223.61 242.553 223.617 242.532C223.624 242.512 223.634 242.491 223.647 242.469C223.661 242.447 223.676 242.426 223.692 242.406C223.709 242.385 223.725 242.366 223.742 242.348C223.758 242.33 223.773 242.315 223.787 242.302C223.807 242.282 223.827 242.263 223.849 242.244C223.872 242.225 223.894 242.207 223.917 242.19C223.94 242.173 223.962 242.158 223.984 242.145C224.006 242.132 224.027 242.121 224.046 242.114C224.066 242.107 224.083 242.103 224.098 242.103C224.114 242.103 224.126 242.108 224.136 242.118C224.143 242.125 224.148 242.134 224.15 242.144C224.153 242.153 224.152 242.164 224.148 242.177C224.144 242.189 224.137 242.202 224.126 242.217C224.115 242.233 224.101 242.249 224.082 242.268C224.059 242.29 224.032 242.312 224.002 242.331C223.973 242.35 223.942 242.368 223.908 242.384C223.875 242.401 223.84 242.415 223.804 242.428C223.768 242.441 223.732 242.453 223.695 242.463C223.671 242.498 223.656 242.529 223.648 242.555C223.641 242.581 223.644 242.601 223.658 242.615C223.667 242.624 223.679 242.629 223.695 242.631C223.711 242.632 223.727 242.632 223.744 242.629C223.761 242.627 223.778 242.623 223.793 242.618C223.809 242.614 223.821 242.61 223.831 242.607C223.834 242.605 223.838 242.605 223.841 242.606C223.844 242.607 223.847 242.609 223.85 242.611C223.854 242.615 223.855 242.62 223.855 242.625C223.854 242.63 223.853 242.634 223.849 242.638C223.848 242.639 223.845 242.641 223.842 242.642ZM223.811 242.33C223.796 242.344 223.782 242.359 223.769 242.373C223.756 242.387 223.744 242.401 223.733 242.414C223.761 242.406 223.79 242.395 223.82 242.383C223.85 242.371 223.879 242.358 223.907 242.344C223.936 242.329 223.963 242.313 223.988 242.296C224.014 242.279 224.036 242.261 224.056 242.242C224.083 242.215 224.101 242.194 224.108 242.178C224.116 242.161 224.116 242.15 224.109 242.142C224.104 242.137 224.096 242.136 224.085 242.138C224.074 242.14 224.06 242.145 224.045 242.152C224.029 242.16 224.012 242.17 223.993 242.182C223.974 242.194 223.954 242.208 223.934 242.223C223.914 242.239 223.893 242.256 223.872 242.274C223.851 242.292 223.831 242.311 223.811 242.33ZM223.89 242.625C223.884 242.628 223.879 242.63 223.872 242.633C223.865 242.635 223.858 242.638 223.851 242.64C223.845 242.642 223.839 242.643 223.835 242.643C223.831 242.643 223.827 242.641 223.824 242.638C223.82 242.634 223.818 242.629 223.818 242.625C223.818 242.62 223.82 242.616 223.823 242.613C223.824 242.612 223.825 242.611 223.826 242.61C223.827 242.61 223.829 242.609 223.832 242.608C223.85 242.603 223.864 242.597 223.875 242.591C223.887 242.586 223.899 242.579 223.91 242.572C223.914 242.565 223.917 242.559 223.92 242.555C223.923 242.551 223.927 242.547 223.931 242.543C223.939 242.535 223.946 242.531 223.954 242.529C223.962 242.528 223.969 242.53 223.975 242.536C223.98 242.541 223.982 242.548 223.98 242.555C223.979 242.563 223.975 242.57 223.968 242.577C223.964 242.581 223.96 242.584 223.956 242.587C223.951 242.59 223.946 242.593 223.939 242.598C223.931 242.616 223.924 242.633 223.919 242.648C223.914 242.664 223.91 242.678 223.905 242.69C223.901 242.703 223.896 242.714 223.891 242.724C223.887 242.734 223.881 242.742 223.873 242.75C223.863 242.759 223.852 242.766 223.839 242.771C223.827 242.776 223.813 242.776 223.798 242.773C223.799 242.775 223.8 242.776 223.801 242.777C223.802 242.778 223.803 242.779 223.804 242.781C223.817 242.794 223.832 242.803 223.849 242.808C223.866 242.814 223.884 242.816 223.902 242.816C223.921 242.815 223.939 242.813 223.958 242.808C223.976 242.804 223.994 242.798 224.011 242.792C224.018 242.789 224.024 242.79 224.028 242.794C224.032 242.798 224.034 242.802 224.033 242.807C224.033 242.812 224.031 242.816 224.027 242.819C224.026 242.821 224.023 242.822 224.021 242.823C224.012 242.827 224.002 242.831 223.99 242.834C223.978 242.838 223.965 242.841 223.95 242.844C223.937 242.847 223.922 242.848 223.907 242.849C223.891 242.849 223.876 242.848 223.86 242.845C223.845 242.842 223.83 242.837 223.816 242.83C223.801 242.823 223.787 242.813 223.774 242.8C223.759 242.784 223.748 242.767 223.74 242.748C223.733 242.729 223.731 242.71 223.735 242.689C223.736 242.686 223.738 242.683 223.74 242.681C223.743 242.677 223.748 242.675 223.753 242.675C223.758 242.676 223.763 242.677 223.766 242.681C223.77 242.685 223.772 242.689 223.771 242.694C223.771 242.695 223.771 242.696 223.771 242.699C223.772 242.701 223.772 242.704 223.773 242.707C223.774 242.71 223.775 242.714 223.776 242.717C223.778 242.721 223.78 242.724 223.783 242.727C223.789 242.732 223.794 242.736 223.8 242.737C223.807 242.739 223.812 242.74 223.818 242.739C223.824 242.738 223.829 242.736 223.834 242.733C223.839 242.73 223.843 242.728 223.845 242.725C223.851 242.719 223.856 242.712 223.86 242.705C223.864 242.697 223.868 242.689 223.87 242.681C223.873 242.672 223.876 242.663 223.879 242.654C223.882 242.644 223.886 242.635 223.89 242.625ZM224.262 243.069C224.259 243.07 224.253 243.072 224.244 243.075C224.235 243.078 224.225 243.08 224.213 243.083C224.201 243.086 224.188 243.089 224.173 243.091C224.159 243.093 224.145 243.094 224.131 243.093C224.116 243.093 224.103 243.091 224.089 243.086C224.077 243.082 224.066 243.075 224.056 243.066C224.043 243.052 224.036 243.037 224.036 243.019C224.035 243.001 224.04 242.984 224.049 242.967C224.028 242.972 224.008 242.973 223.989 242.97C223.971 242.967 223.956 242.959 223.946 242.949C223.937 242.94 223.931 242.931 223.927 242.921C223.924 242.911 223.922 242.9 223.923 242.89C223.924 242.879 223.927 242.869 223.932 242.859C223.937 242.849 223.944 242.839 223.953 242.83C223.972 242.812 223.99 242.8 224.01 242.792C224.03 242.785 224.05 242.782 224.068 242.782C224.087 242.782 224.104 242.786 224.12 242.793C224.136 242.8 224.149 242.809 224.16 242.82C224.167 242.827 224.172 242.834 224.176 242.843C224.18 242.85 224.183 242.858 224.185 242.864C224.187 242.871 224.188 242.876 224.188 242.881C224.188 242.885 224.189 242.887 224.189 242.888C224.188 242.893 224.186 242.897 224.183 242.901C224.179 242.904 224.175 242.906 224.17 242.906C224.165 242.906 224.16 242.904 224.157 242.901C224.153 242.897 224.152 242.893 224.152 242.888C224.152 242.887 224.151 242.885 224.151 242.882C224.151 242.879 224.15 242.875 224.149 242.871C224.147 242.867 224.145 242.863 224.142 242.858C224.14 242.853 224.136 242.848 224.131 242.843C224.124 242.836 224.115 242.83 224.104 242.825C224.093 242.82 224.08 242.818 224.067 242.818C224.053 242.817 224.039 242.82 224.024 242.826C224.01 242.831 223.995 242.841 223.981 242.855C223.977 242.859 223.973 242.864 223.969 242.87C223.965 242.875 223.963 242.881 223.961 242.887C223.96 242.893 223.96 242.899 223.962 242.905C223.963 242.911 223.967 242.917 223.972 242.923C223.977 242.927 223.983 242.931 223.991 242.933C223.999 242.936 224.008 242.937 224.019 242.936C224.03 242.936 224.042 242.933 224.054 242.928C224.067 242.924 224.08 242.916 224.094 242.906C224.098 242.904 224.102 242.902 224.107 242.903C224.111 242.903 224.116 242.905 224.119 242.909C224.122 242.912 224.124 242.916 224.123 242.921C224.123 242.926 224.122 242.93 224.119 242.933C224.115 242.938 224.109 242.945 224.101 242.953C224.094 242.962 224.088 242.971 224.082 242.981C224.077 242.991 224.073 243.002 224.072 243.012C224.071 243.023 224.075 243.033 224.083 243.041C224.089 243.047 224.096 243.051 224.104 243.053C224.112 243.056 224.122 243.057 224.132 243.058C224.142 243.058 224.153 243.057 224.163 243.056C224.175 243.054 224.185 243.052 224.196 243.05C224.206 243.048 224.216 243.045 224.225 243.042C224.234 243.039 224.242 243.037 224.248 243.034C224.252 243.033 224.255 243.033 224.259 243.033C224.263 243.034 224.266 243.036 224.268 243.039C224.272 243.043 224.274 243.047 224.273 243.052C224.273 243.058 224.271 243.062 224.268 243.065C224.266 243.067 224.264 243.068 224.262 243.069ZM224.389 243.174C224.369 243.186 224.349 243.196 224.329 243.204C224.308 243.211 224.289 243.216 224.271 243.219C224.254 243.222 224.238 243.222 224.225 243.221C224.212 243.219 224.202 243.216 224.197 243.211C224.191 243.205 224.187 243.195 224.186 243.182C224.185 243.169 224.186 243.154 224.19 243.137C224.195 243.119 224.203 243.101 224.213 243.082C224.224 243.063 224.238 243.045 224.255 243.028C224.271 243.013 224.283 243.003 224.294 242.998C224.304 242.993 224.311 242.99 224.313 242.99C224.316 242.989 224.319 242.989 224.322 242.989C224.325 242.99 224.328 242.992 224.33 242.995C224.334 242.999 224.336 243.003 224.335 243.008C224.335 243.013 224.333 243.017 224.33 243.02C224.328 243.023 224.325 243.024 224.323 243.025C224.322 243.025 224.318 243.027 224.31 243.031C224.303 243.035 224.293 243.042 224.281 243.054C224.268 243.067 224.256 243.081 224.248 243.095C224.239 243.109 224.232 243.122 224.227 243.135C224.223 243.147 224.22 243.157 224.22 243.166C224.219 243.175 224.22 243.181 224.223 243.184C224.225 243.186 224.229 243.187 224.236 243.187C224.243 243.187 224.252 243.186 224.262 243.184C224.272 243.183 224.283 243.18 224.296 243.176C224.308 243.172 224.321 243.167 224.335 243.161C224.348 243.155 224.362 243.147 224.374 243.139C224.388 243.13 224.4 243.12 224.412 243.109C224.414 243.107 224.416 243.105 224.418 243.102C224.42 243.1 224.423 243.098 224.425 243.096C224.429 243.092 224.433 243.09 224.438 243.089C224.444 243.089 224.448 243.091 224.452 243.095C224.455 243.098 224.457 243.102 224.457 243.106C224.458 243.11 224.457 243.114 224.454 243.118C224.454 243.118 224.453 243.12 224.45 243.125C224.447 243.13 224.443 243.136 224.439 243.145C224.435 243.153 224.431 243.162 224.427 243.173C224.424 243.183 224.421 243.194 224.419 243.205C224.418 243.215 224.418 243.226 224.42 243.236C224.422 243.247 224.427 243.256 224.435 243.264C224.439 243.269 224.444 243.271 224.449 243.273C224.454 243.274 224.459 243.275 224.463 243.275C224.468 243.275 224.471 243.274 224.474 243.273C224.477 243.272 224.479 243.271 224.479 243.271C224.483 243.27 224.486 243.269 224.49 243.27C224.494 243.271 224.497 243.272 224.5 243.275C224.503 243.279 224.505 243.283 224.505 243.289C224.505 243.294 224.503 243.298 224.5 243.301C224.498 243.303 224.496 243.304 224.494 243.305C224.489 243.307 224.483 243.308 224.476 243.31C224.47 243.311 224.462 243.312 224.455 243.311C224.447 243.311 224.439 243.309 224.43 243.306C224.423 243.302 224.415 243.297 224.408 243.29C224.401 243.282 224.394 243.273 224.39 243.263C224.387 243.253 224.384 243.243 224.383 243.233C224.382 243.223 224.382 243.213 224.383 243.203C224.384 243.192 224.386 243.183 224.389 243.174Z" fill="#4D4D4D"/>
<circle cx="211" cy="204" r="156" stroke="#1E1E27" stroke-width="2" stroke-linecap="round" stroke-linejoin="round" stroke-dasharray="10 30"/>
</svg>
